<?xml version="1.0" encoding="utf-8"?>
<!-- Generator: Adobe Illustrator 16.0.3, SVG Export Plug-In . SVG Version: 6.00 Build 0)  -->
<!DOCTYPE svg PUBLIC "-//W3C//DTD SVG 1.1//EN" "http://www.w3.org/Graphics/SVG/1.1/DTD/svg11.dtd">
<svg version="1.1" id="Layer_1" xmlns="http://www.w3.org/2000/svg" xmlns:xlink="http://www.w3.org/1999/xlink" x="0px" y="0px"
	 width="420px" height="90px" viewBox="0 0 420 90" enable-background="new 0 0 420 90" xml:space="preserve">
<g>
	<path fill="#FFFFFF" d="M61.237,15.199v3.529c0.001,1.038-0.5,1.663-1.501,1.878c-0.088,0.016-0.214,0.038-0.377,0.068
		c-0.163,0.029-0.461,0.084-0.895,0.162c-0.435,0.078-1.026,0.182-1.774,0.314v37.461h-4.173c-0.641,0-1.172-0.103-1.591-0.303
		c-0.421-0.199-0.831-0.56-1.231-1.08l-22.698-28.91c0.061,0.646,0.106,1.281,0.135,1.906c0.03,0.631,0.045,1.206,0.045,1.726v20.71
		c2.516,0.345,3.82,0.524,3.912,0.543c1.002,0.214,1.503,0.841,1.503,1.878v3.527h-5.415h-7.115h-4.548v-3.527
		c0-1.037,0.501-1.664,1.502-1.878c0.087-0.019,0.213-0.038,0.376-0.068c0.164-0.028,0.462-0.084,0.895-0.159
		c0.433-0.078,1.024-0.184,1.774-0.313v-31.51c-0.75-0.134-1.341-0.238-1.774-0.315s-0.731-0.131-0.895-0.161
		c-0.164-0.03-0.289-0.053-0.377-0.068c-1.001-0.214-1.502-0.84-1.502-1.878v-3.529h4.548h4.233c0.36,0,0.661,0.015,0.901,0.045
		c0.239,0.029,0.454,0.09,0.646,0.18c0.189,0.09,0.374,0.221,0.555,0.391c0.178,0.169,0.379,0.394,0.6,0.676l22.787,29.029
		c-0.08-0.694-0.135-1.381-0.166-2.058c-0.031-0.67-0.046-1.296-0.045-1.876V21.152c-2.498-0.344-3.803-0.525-3.916-0.545
		c-1.001-0.215-1.502-0.84-1.502-1.878v-3.53h5.417h7.115H61.237z"/>
	<path fill="#FFFFFF" d="M90.183,55.021v3.53h-3.73h-0.818H83.12c-0.701,0-1.251-0.104-1.651-0.315
		c-0.4-0.211-0.701-0.635-0.9-1.274l-0.66-2.19c-0.781,0.699-1.546,1.314-2.297,1.847c-0.749,0.528-1.524,0.975-2.327,1.336
		c-0.801,0.358-1.651,0.631-2.552,0.812c-0.901,0.182-1.902,0.271-3.002,0.271c-1.3,0-2.501-0.179-3.603-0.527
		c-1.101-0.352-2.046-0.879-2.837-1.582c-0.791-0.702-1.406-1.573-1.846-2.62c-0.44-1.043-0.661-2.261-0.661-3.645
		c0-1.165,0.305-2.314,0.916-3.45c0.61-1.134,1.626-2.158,3.047-3.072s3.312-1.672,5.674-2.274c2.362-0.602,5.294-0.903,8.797-0.903
		v-1.815c0-2.077-0.436-3.614-1.306-4.613c-0.871-0.999-2.137-1.497-3.798-1.497c-1.201,0-2.202,0.14-3.002,0.42
		c-0.802,0.28-1.497,0.596-2.086,0.946c-0.585,0.347-1.131,0.662-1.636,0.945c-0.5,0.28-1.051,0.42-1.651,0.42
		c-0.5,0-0.931-0.13-1.291-0.391c-0.361-0.26-0.651-0.58-0.871-0.961l-1.352-2.371c3.542-3.242,7.816-4.863,12.819-4.863
		c1.8,0,3.407,0.295,4.818,0.886c1.411,0.59,2.607,1.41,3.588,2.461c0.981,1.053,1.727,2.309,2.236,3.769
		c0.511,1.461,0.766,3.062,0.766,4.804v13.646c0.684,0.121,1.211,0.215,1.582,0.283c0.371,0.065,0.586,0.104,0.646,0.116
		C89.683,53.357,90.183,53.982,90.183,55.021z M79.217,45.492c-2.164,0-3.97,0.136-5.419,0.406c-1.45,0.271-2.617,0.621-3.498,1.045
		c-0.881,0.424-1.506,0.916-1.876,1.48c-0.37,0.563-0.556,1.178-0.556,1.844c0,1.312,0.386,2.248,1.156,2.813s1.775,0.85,3.017,0.85
		c0.761-0.004,1.462-0.068,2.103-0.207c0.64-0.14,1.246-0.346,1.816-0.621c0.569-0.275,1.119-0.613,1.65-1.02
		c0.531-0.402,1.066-0.883,1.607-1.436V45.492z"/>
	<path fill="#FFFFFF" d="M95.923,56.826c-1.441-1.512-2.162-3.6-2.162-6.262V33.363h-3.123c-0.4,0-0.745-0.131-1.035-0.391
		c-0.29-0.26-0.435-0.65-0.435-1.171v-2.942l4.954-0.81l1.561-8.407c0.081-0.4,0.266-0.711,0.556-0.931
		c0.29-0.221,0.655-0.331,1.095-0.33h3.843v9.697h8.106v5.284h-8.106v16.693c0,0.961,0.24,1.713,0.721,2.254
		c0.48,0.539,1.12,0.809,1.922,0.809c0.46,0,0.845-0.055,1.155-0.163c0.311-0.11,0.581-0.228,0.811-0.347s0.436-0.234,0.615-0.344
		c0.18-0.111,0.361-0.166,0.541-0.166c0.22,0,0.4,0.055,0.54,0.166c0.14,0.107,0.29,0.271,0.45,0.492l2.222,3.604
		c-1.082,0.9-2.322,1.582-3.723,2.043c-1.401,0.459-2.852,0.689-4.354,0.689C99.416,59.095,97.364,58.337,95.923,56.826z"/>
	<path fill="#FFFFFF" d="M146.632,55.082v3.527h-4.548h-4.534c-0.961,0-1.591-0.448-1.891-1.352l-0.511-2.461
		c-0.64,0.641-1.3,1.225-1.981,1.756s-1.406,0.981-2.177,1.354c-0.771,0.368-1.601,0.657-2.492,0.868
		c-0.891,0.209-1.846,0.313-2.867,0.313c-1.681,0-3.167-0.284-4.458-0.854c-1.291-0.568-2.377-1.375-3.257-2.418
		c-0.881-1.039-1.546-2.274-1.997-3.707c-0.45-1.43-0.675-3.006-0.675-4.729v-13.62c-2.558-0.451-2.585-0.463-3.046-0.544
		c-1.001-0.215-1.502-0.841-1.502-1.878V27.81h4.548v-0.001h7.416v19.574c0,1.885,0.435,3.34,1.306,4.369
		c0.87,1.031,2.176,1.547,3.917,1.547c1.28,0,2.481-0.285,3.603-0.855c1.121-0.569,2.181-1.354,3.183-2.355V33.759
		c-2.55-0.449-2.577-0.461-3.038-0.543c-1.002-0.214-1.503-0.84-1.503-1.877v-3.53h4.541h0.008h7.407v24.853
		c2.558,0.449,2.584,0.462,3.045,0.544C146.131,53.418,146.633,54.045,146.632,55.082z"/>
	<path fill="#FFFFFF" d="M172.257,28.29l-0.96,5.555c-0.061,0.359-0.191,0.615-0.39,0.765c-0.201,0.15-0.472,0.226-0.811,0.226
		c-0.301,0-0.711-0.07-1.232-0.211c-0.521-0.139-1.211-0.21-2.071-0.21c-1.542,0-2.863,0.426-3.963,1.276
		c-1.102,0.851-2.032,2.097-2.792,3.738v13.232c2.556,0.448,2.583,0.462,3.044,0.545c1.002,0.214,1.503,0.841,1.503,1.876v3.531
		h-4.547h-0.002h-7.414h-4.548v-3.531c0-1.035,0.5-1.662,1.502-1.876c0.461-0.083,0.488-0.097,3.046-0.545V33.762
		c-2.558-0.451-2.584-0.463-3.046-0.544c-1.002-0.215-1.503-0.841-1.502-1.879V27.81h4.548l0,0h4.354c0.76,0,1.291,0.14,1.591,0.42
		c0.3,0.281,0.5,0.762,0.6,1.441l0.451,3.723c1.1-1.901,2.391-3.402,3.873-4.504c1.481-1.1,3.142-1.651,4.984-1.651
		C169.994,27.238,171.256,27.589,172.257,28.29z"/>
	<path fill="#FFFFFF" d="M201.678,55.021v3.53h-3.729h-0.816h-2.516c-0.702,0-1.252-0.104-1.651-0.315
		c-0.4-0.211-0.701-0.635-0.9-1.274l-0.66-2.19c-0.781,0.699-1.547,1.314-2.297,1.847c-0.749,0.528-1.524,0.975-2.327,1.336
		c-0.801,0.358-1.652,0.631-2.552,0.812c-0.901,0.182-1.902,0.271-3.003,0.271c-1.299,0-2.5-0.179-3.603-0.527
		c-1.101-0.352-2.046-0.879-2.837-1.582c-0.791-0.702-1.406-1.573-1.846-2.62c-0.441-1.043-0.661-2.261-0.661-3.645
		c0-1.165,0.305-2.314,0.916-3.45c0.611-1.134,1.626-2.158,3.048-3.072c1.42-0.914,3.312-1.672,5.674-2.274
		c2.361-0.602,5.294-0.903,8.796-0.903v-1.815c0-2.077-0.435-3.614-1.305-4.613c-0.871-0.999-2.137-1.497-3.798-1.497
		c-1.201,0-2.202,0.14-3.002,0.42c-0.802,0.28-1.497,0.596-2.086,0.946c-0.586,0.347-1.131,0.662-1.637,0.945
		c-0.5,0.28-1.051,0.42-1.65,0.42c-0.5,0-0.931-0.13-1.292-0.391c-0.36-0.26-0.651-0.58-0.871-0.961l-1.351-2.371
		c3.542-3.242,7.816-4.863,12.819-4.863c1.8,0,3.406,0.295,4.818,0.886c1.41,0.59,2.607,1.41,3.587,2.461
		c0.981,1.053,1.729,2.309,2.237,3.769c0.511,1.461,0.766,3.062,0.766,4.804v13.646c0.686,0.121,1.212,0.215,1.581,0.283
		c0.37,0.065,0.587,0.104,0.647,0.116C201.178,53.357,201.678,53.982,201.678,55.021z M190.713,45.492
		c-2.164,0-3.97,0.136-5.419,0.406c-1.45,0.271-2.616,0.621-3.497,1.045s-1.506,0.916-1.876,1.48
		c-0.371,0.563-0.556,1.178-0.556,1.844c0,1.312,0.385,2.248,1.156,2.813c0.77,0.564,1.775,0.85,3.017,0.85
		c0.761-0.004,1.462-0.068,2.103-0.207c0.641-0.14,1.246-0.346,1.816-0.621c0.569-0.275,1.12-0.613,1.651-1.02
		c0.53-0.402,1.065-0.883,1.606-1.436L190.713,45.492L190.713,45.492z"/>
	<path fill="#FFFFFF" d="M219.596,55.082v3.527h-4.548h-7.417h-4.55v-3.527c0-1.037,0.501-1.664,1.505-1.878
		c0.086-0.019,0.213-0.038,0.375-0.068c0.164-0.028,0.463-0.085,0.896-0.159c0.433-0.078,1.024-0.186,1.774-0.314v-32.71
		c-0.75-0.133-1.343-0.237-1.774-0.314c-0.433-0.078-0.729-0.132-0.896-0.161c-0.162-0.031-0.287-0.054-0.375-0.069
		c-1.004-0.214-1.505-0.84-1.505-1.878V14h4.55h7.417v38.662c0.75,0.131,1.341,0.234,1.772,0.313
		c0.435,0.076,0.73,0.131,0.896,0.162c0.164,0.029,0.289,0.051,0.377,0.067C219.096,53.418,219.596,54.045,219.596,55.082z"/>
	<path fill="#FFFFFF" d="M281.412,15.199v3.529c0.001,1.038-0.501,1.663-1.503,1.878c-0.087,0.016-0.214,0.038-0.377,0.068
		c-0.161,0.029-0.46,0.084-0.896,0.162c-0.434,0.078-1.024,0.182-1.771,0.314v37.461h-4.174c-0.642,0-1.172-0.103-1.592-0.303
		c-0.421-0.199-0.83-0.56-1.23-1.08l-22.695-28.911c0.061,0.646,0.104,1.281,0.135,1.906c0.029,0.631,0.045,1.206,0.045,1.726v20.71
		c2.518,0.345,3.82,0.525,3.912,0.543c1.002,0.214,1.502,0.841,1.502,1.878v3.528h-5.414h-7.113h-4.549v-3.528
		c-0.002-1.037,0.5-1.664,1.502-1.878c0.088-0.018,0.213-0.038,0.377-0.068c0.164-0.029,0.463-0.084,0.896-0.16
		c0.435-0.078,1.022-0.183,1.774-0.313v-31.51c-0.752-0.134-1.342-0.238-1.774-0.315c-0.432-0.077-0.729-0.131-0.896-0.161
		c-0.164-0.03-0.289-0.053-0.377-0.068c-1.002-0.214-1.504-0.84-1.502-1.878v-3.529h4.549h4.23c0.36,0,0.662,0.015,0.9,0.045
		c0.238,0.029,0.455,0.09,0.646,0.18c0.188,0.09,0.375,0.221,0.555,0.391c0.18,0.169,0.379,0.394,0.602,0.676l22.787,29.03
		c-0.08-0.695-0.135-1.382-0.164-2.059c-0.031-0.67-0.047-1.296-0.047-1.876l0.002-20.438c-2.498-0.344-3.805-0.525-3.916-0.545
		c-1.003-0.215-1.503-0.84-1.502-1.878v-3.53h5.416h7.115L281.412,15.199L281.412,15.199z"/>
	<path fill="#FFFFFF" d="M301.395,28.26c1.633,0.62,3.039,1.525,4.219,2.717c1.184,1.19,2.104,2.652,2.764,4.383
		c0.659,1.731,0.989,3.708,0.989,5.93c0,0.56-0.022,1.025-0.074,1.396c-0.05,0.37-0.141,0.662-0.271,0.87
		c-0.13,0.212-0.306,0.361-0.524,0.451c-0.22,0.091-0.501,0.136-0.841,0.136h-19.033c0.221,3.164,1.07,5.483,2.551,6.964
		s3.442,2.223,5.885,2.223c1.201,0,2.238-0.143,3.107-0.42c0.871-0.281,1.633-0.592,2.279-0.932
		c0.652-0.342,1.223-0.648,1.713-0.932c0.49-0.281,0.966-0.421,1.428-0.42c0.299,0,0.561,0.061,0.779,0.18
		c0.221,0.119,0.41,0.291,0.569,0.512l2.16,2.701c-0.817,0.961-1.738,1.768-2.762,2.416c-1.021,0.65-2.086,1.172-3.194,1.563
		c-1.113,0.393-2.244,0.666-3.395,0.827c-1.151,0.157-2.27,0.237-3.35,0.237c-2.143,0-4.133-0.354-5.975-1.064
		s-3.441-1.762-4.804-3.15c-1.36-1.391-2.433-3.113-3.214-5.164c-0.779-2.053-1.17-4.43-1.17-7.129c0-2.103,0.341-4.079,1.021-5.93
		c0.681-1.853,1.656-3.463,2.929-4.834c1.271-1.371,2.821-2.457,4.651-3.258c1.831-0.801,3.897-1.2,6.2-1.2
		C297.977,27.329,299.764,27.639,301.395,28.26z M291.111,34.474c-1.221,1.221-2.002,2.952-2.342,5.194h13.932
		c0-0.961-0.131-1.866-0.393-2.718c-0.26-0.85-0.658-1.596-1.199-2.236c-0.541-0.641-1.223-1.146-2.041-1.516
		c-0.821-0.371-1.781-0.557-2.883-0.557C294.023,32.642,292.333,33.253,291.111,34.474z"/>
	<path fill="#FFFFFF" d="M361.411,27.811v3.529c0,1.037-0.5,1.663-1.502,1.878c-0.463,0.081-0.285,0.058-2.842,0.509l-7.884,24.887
		h-5.975c-0.641,0-1.102-0.441-1.382-1.322l-5.554-17.804c-0.181-0.579-0.347-1.165-0.495-1.756
		c-0.151-0.59-0.274-1.175-0.376-1.756c-0.119,0.601-0.25,1.196-0.392,1.786c-0.141,0.591-0.301,1.187-0.479,1.787l-5.612,17.742
		c-0.281,0.881-0.824,1.32-1.623,1.32h-5.675l-7.883-24.887c-2.552-0.449-2.375-0.426-2.837-0.507
		c-1.001-0.215-1.503-0.841-1.502-1.878V27.81h2.465v-0.001h5.885c0.004,0,0.01,0.001,0.012,0.001h6.643v3.529
		c0.002,1.037-0.499,1.663-1.501,1.878c-0.375,0.066-0.464,0.086-1.853,0.333l3.244,12.093c0.24,0.901,0.437,1.781,0.584,2.645
		c0.15,0.859,0.295,1.722,0.438,2.581c0.221-0.859,0.456-1.722,0.705-2.581c0.251-0.861,0.516-1.741,0.797-2.645l5.104-16.513
		c0.119-0.4,0.359-0.729,0.721-0.99c0.361-0.26,0.779-0.391,1.262-0.391h3.271c0.539,0,0.99,0.131,1.352,0.391
		c0.359,0.26,0.603,0.59,0.722,0.99l5.043,16.813c0.262,0.858,0.496,1.693,0.707,2.505c0.209,0.813,0.415,1.627,0.614,2.448
		c0.14-0.86,0.295-1.725,0.465-2.584c0.171-0.858,0.386-1.75,0.646-2.672l3.341-12.039c-1.677-0.297-1.752-0.316-2.151-0.387
		c-1.002-0.215-1.503-0.841-1.502-1.878v-3.529h6.908c0.005,0,0.008-0.001,0.011-0.001h5.614v0.001h2.468L361.411,27.811
		L361.411,27.811z"/>
	<path fill="#FFFFFF" d="M384.546,48.854c0,1.48-0.271,2.848-0.813,4.099c-0.539,1.251-1.329,2.331-2.37,3.241
		s-2.326,1.621-3.858,2.133c-1.531,0.51-3.287,0.765-5.27,0.765c-3.816,0-7.558-0.813-9.759-1.649v-0.002v-3.01v-5.715h0.258h0.729
		h2.469c0.772,0,1.24,0.373,1.4,1.119c0.051,0.287,0.161,1.109,0.404,3.543c1.635,0.512,3.554,0.521,4.856,0.521
		c0.881,0,1.638-0.104,2.268-0.314c0.632-0.21,1.148-0.484,1.562-0.826c0.409-0.341,0.711-0.734,0.901-1.186
		c0.188-0.45,0.284-0.915,0.284-1.396c0-0.721-0.216-1.311-0.646-1.771c-0.432-0.462-1.002-0.86-1.713-1.2s-1.521-0.645-2.432-0.915
		c-0.911-0.271-1.843-0.565-2.791-0.886c-0.952-0.32-1.884-0.695-2.794-1.126c-0.91-0.43-1.721-0.977-2.432-1.636
		c-0.711-0.661-1.279-1.473-1.711-2.432c-0.433-0.962-0.646-2.122-0.646-3.483c0-1.261,0.25-2.462,0.75-3.603
		c0.501-1.141,1.235-2.136,2.208-2.987c0.97-0.851,2.183-1.531,3.632-2.041c1.452-0.511,3.127-0.766,5.028-0.766
		c2.98,0,4.635,0.24,8.947,1.59l-0.004,0.004v8.72h-0.256h-0.729h-2.472c-0.772,0-1.24-0.373-1.399-1.119
		c-0.05-0.281-0.155-1.073-0.39-3.39c-0.771-0.255-2.194-0.401-3.582-0.401c-1.461,0-2.608,0.311-3.452,0.931
		c-0.841,0.62-1.261,1.432-1.261,2.432c0,0.66,0.215,1.216,0.646,1.666c0.43,0.45,1,0.846,1.712,1.186
		c0.71,0.341,1.517,0.646,2.415,0.917c0.899,0.27,1.821,0.564,2.764,0.885c0.939,0.321,1.86,0.687,2.762,1.096
		c0.9,0.411,1.707,0.931,2.417,1.561c0.71,0.632,1.28,1.386,1.711,2.269C384.33,46.553,384.546,47.613,384.546,48.854z"/>
</g>
<g>
	<path fill="#FFFFFF" d="M18.894,69.167h-3.075v-1.109h7.485v1.109h-3.09v9h-1.32V69.167z"/>
	<path fill="#FFFFFF" d="M24.278,67.518h1.32v4.529h0.03c0.21-0.375,0.54-0.705,0.945-0.93c0.39-0.225,0.855-0.375,1.35-0.375
		c0.975,0,2.535,0.6,2.535,3.104v4.32h-1.32v-4.17c0-1.17-0.435-2.16-1.68-2.16c-0.855,0-1.53,0.601-1.77,1.32
		c-0.075,0.18-0.09,0.375-0.09,0.63v4.38h-1.32V67.518z"/>
	<path fill="#FFFFFF" d="M33.338,74.777c0.03,1.785,1.17,2.52,2.49,2.52c0.945,0,1.515-0.165,2.01-0.375l0.225,0.945
		c-0.465,0.21-1.26,0.45-2.415,0.45c-2.235,0-3.57-1.471-3.57-3.66c0-2.19,1.29-3.915,3.405-3.915c2.37,0,3,2.085,3,3.42
		c0,0.271-0.03,0.48-0.045,0.615H33.338z M37.208,73.832c0.015-0.84-0.345-2.145-1.83-2.145c-1.335,0-1.92,1.229-2.025,2.145H37.208
		z"/>
	<path fill="#FFFFFF" d="M43.823,70.907l0.96,3.689c0.21,0.811,0.405,1.561,0.54,2.311h0.045c0.165-0.735,0.405-1.515,0.645-2.295
		l1.185-3.705h1.11l1.125,3.63c0.27,0.87,0.48,1.635,0.645,2.37h0.045c0.12-0.735,0.315-1.5,0.555-2.355l1.035-3.645h1.305
		l-2.34,7.26h-1.2l-1.11-3.465c-0.255-0.81-0.465-1.53-0.645-2.385h-0.03c-0.18,0.87-0.405,1.62-0.66,2.399l-1.17,3.45h-1.2
		l-2.19-7.26H43.823z"/>
	<path fill="#FFFFFF" d="M60.758,74.478c0,2.685-1.86,3.854-3.615,3.854c-1.965,0-3.48-1.44-3.48-3.735c0-2.43,1.59-3.854,3.6-3.854
		C59.348,70.742,60.758,72.257,60.758,74.478z M54.998,74.552c0,1.59,0.915,2.79,2.205,2.79c1.26,0,2.205-1.185,2.205-2.819
		c0-1.23-0.615-2.79-2.175-2.79C55.673,71.732,54.998,73.172,54.998,74.552z"/>
	<path fill="#FFFFFF" d="M62.423,73.172c0-0.854-0.015-1.59-0.06-2.265h1.155l0.045,1.425h0.06c0.33-0.975,1.125-1.59,2.01-1.59
		c0.15,0,0.255,0.015,0.375,0.045v1.245c-0.135-0.03-0.27-0.045-0.45-0.045c-0.93,0-1.59,0.705-1.77,1.695
		c-0.03,0.18-0.06,0.39-0.06,0.614v3.87h-1.305V73.172z"/>
	<path fill="#FFFFFF" d="M67.388,67.518h1.32v10.649h-1.32V67.518z"/>
	<path fill="#FFFFFF" d="M77.198,67.518v8.774c0,0.646,0.015,1.38,0.06,1.875h-1.185l-0.06-1.26h-0.03
		c-0.405,0.81-1.29,1.425-2.475,1.425c-1.755,0-3.105-1.485-3.105-3.689c-0.015-2.415,1.485-3.9,3.255-3.9
		c1.11,0,1.86,0.525,2.19,1.11h0.03v-4.335H77.198z M75.878,73.862c0-0.165-0.015-0.39-0.06-0.555
		c-0.195-0.841-0.915-1.53-1.905-1.53c-1.365,0-2.175,1.2-2.175,2.805c0,1.47,0.72,2.685,2.145,2.685
		c0.885,0,1.695-0.585,1.935-1.574c0.045-0.181,0.06-0.36,0.06-0.57V73.862z"/>
	<path fill="#FFFFFF" d="M80.363,67.893l-0.255,3.6h-0.81l-0.24-3.6H80.363z"/>
	<path fill="#FFFFFF" d="M82.028,76.817c0.39,0.255,1.08,0.524,1.74,0.524c0.96,0,1.41-0.479,1.41-1.08
		c0-0.63-0.375-0.975-1.35-1.335c-1.305-0.465-1.92-1.185-1.92-2.055c0-1.17,0.945-2.13,2.505-2.13c0.735,0,1.38,0.21,1.785,0.45
		l-0.33,0.96c-0.285-0.18-0.81-0.42-1.485-0.42c-0.78,0-1.215,0.45-1.215,0.99c0,0.6,0.435,0.869,1.38,1.229
		c1.26,0.48,1.905,1.11,1.905,2.189c0,1.275-0.99,2.176-2.715,2.176c-0.795,0-1.53-0.195-2.04-0.495L82.028,76.817z"/>
	<path fill="#FFFFFF" d="M92.917,68.822v2.085h1.89v1.005h-1.89v3.915c0,0.9,0.255,1.41,0.99,1.41c0.345,0,0.6-0.045,0.765-0.09
		l0.06,0.989c-0.255,0.105-0.66,0.181-1.17,0.181c-0.615,0-1.11-0.195-1.425-0.556c-0.375-0.39-0.51-1.034-0.51-1.89v-3.96h-1.125
		v-1.005h1.125v-1.74L92.917,68.822z"/>
	<path fill="#FFFFFF" d="M102.772,74.478c0,2.685-1.86,3.854-3.615,3.854c-1.965,0-3.48-1.44-3.48-3.735
		c0-2.43,1.59-3.854,3.6-3.854C101.362,70.742,102.772,72.257,102.772,74.478z M97.012,74.552c0,1.59,0.915,2.79,2.205,2.79
		c1.26,0,2.205-1.185,2.205-2.819c0-1.23-0.615-2.79-2.175-2.79C97.688,71.732,97.012,73.172,97.012,74.552z"/>
	<path fill="#FFFFFF" d="M104.437,73.277c0-0.93-0.03-1.68-0.06-2.37h1.185l0.06,1.245h0.03c0.54-0.885,1.395-1.41,2.58-1.41
		c1.755,0,3.075,1.485,3.075,3.69c0,2.609-1.59,3.899-3.3,3.899c-0.96,0-1.8-0.42-2.235-1.14h-0.03v3.944h-1.305V73.277z
		 M105.742,75.212c0,0.195,0.03,0.375,0.06,0.54c0.24,0.915,1.035,1.545,1.98,1.545c1.395,0,2.205-1.14,2.205-2.805
		c0-1.455-0.765-2.7-2.16-2.7c-0.9,0-1.74,0.646-1.995,1.635c-0.045,0.165-0.09,0.36-0.09,0.54V75.212z"/>
	<path fill="#FFFFFF" d="M116.152,72.872c0-0.75-0.015-1.365-0.06-1.965h1.17l0.075,1.2h0.03c0.36-0.69,1.2-1.365,2.4-1.365
		c1.005,0,2.565,0.6,2.565,3.09v4.335h-1.32v-4.185c0-1.17-0.435-2.146-1.68-2.146c-0.87,0-1.545,0.615-1.77,1.351
		c-0.06,0.165-0.09,0.39-0.09,0.614v4.365h-1.32V72.872z"/>
	<path fill="#FFFFFF" d="M125.212,74.777c0.03,1.785,1.17,2.52,2.49,2.52c0.945,0,1.515-0.165,2.01-0.375l0.225,0.945
		c-0.465,0.21-1.26,0.45-2.415,0.45c-2.235,0-3.57-1.471-3.57-3.66c0-2.19,1.29-3.915,3.405-3.915c2.37,0,3,2.085,3,3.42
		c0,0.271-0.03,0.48-0.045,0.615H125.212z M129.082,73.832c0.015-0.84-0.345-2.145-1.83-2.145c-1.335,0-1.92,1.229-2.025,2.145
		H129.082z"/>
	<path fill="#FFFFFF" d="M132.517,70.907l0.96,3.689c0.21,0.811,0.405,1.561,0.54,2.311h0.045c0.165-0.735,0.405-1.515,0.645-2.295
		l1.185-3.705h1.11l1.125,3.63c0.27,0.87,0.48,1.635,0.645,2.37h0.045c0.12-0.735,0.315-1.5,0.555-2.355l1.035-3.645h1.305
		l-2.34,7.26h-1.2l-1.11-3.465c-0.255-0.81-0.465-1.53-0.645-2.385h-0.03c-0.18,0.87-0.405,1.62-0.66,2.399l-1.17,3.45h-1.2
		l-2.19-7.26H132.517z"/>
	<path fill="#FFFFFF" d="M142.762,76.817c0.39,0.255,1.08,0.524,1.74,0.524c0.96,0,1.41-0.479,1.41-1.08
		c0-0.63-0.375-0.975-1.35-1.335c-1.305-0.465-1.92-1.185-1.92-2.055c0-1.17,0.945-2.13,2.505-2.13c0.735,0,1.38,0.21,1.785,0.45
		l-0.33,0.96c-0.285-0.18-0.81-0.42-1.485-0.42c-0.78,0-1.215,0.45-1.215,0.99c0,0.6,0.435,0.869,1.38,1.229
		c1.26,0.48,1.905,1.11,1.905,2.189c0,1.275-0.99,2.176-2.715,2.176c-0.795,0-1.53-0.195-2.04-0.495L142.762,76.817z"/>
	<path fill="#FFFFFF" d="M151.881,76.817c0.39,0.255,1.08,0.524,1.74,0.524c0.96,0,1.41-0.479,1.41-1.08
		c0-0.63-0.375-0.975-1.35-1.335c-1.305-0.465-1.92-1.185-1.92-2.055c0-1.17,0.945-2.13,2.505-2.13c0.735,0,1.38,0.21,1.785,0.45
		l-0.33,0.96c-0.285-0.18-0.81-0.42-1.485-0.42c-0.78,0-1.215,0.45-1.215,0.99c0,0.6,0.435,0.869,1.38,1.229
		c1.26,0.48,1.905,1.11,1.905,2.189c0,1.275-0.99,2.176-2.715,2.176c-0.795,0-1.53-0.195-2.04-0.495L151.881,76.817z"/>
	<path fill="#FFFFFF" d="M164.571,74.478c0,2.685-1.86,3.854-3.615,3.854c-1.965,0-3.48-1.44-3.48-3.735
		c0-2.43,1.59-3.854,3.6-3.854C163.161,70.742,164.571,72.257,164.571,74.478z M158.811,74.552c0,1.59,0.915,2.79,2.205,2.79
		c1.26,0,2.205-1.185,2.205-2.819c0-1.23-0.615-2.79-2.175-2.79C159.486,71.732,158.811,73.172,158.811,74.552z"/>
	<path fill="#FFFFFF" d="M172.311,76.188c0,0.75,0.015,1.409,0.06,1.979h-1.17l-0.075-1.185h-0.03c-0.345,0.585-1.11,1.35-2.4,1.35
		c-1.14,0-2.505-0.63-2.505-3.18v-4.245h1.32v4.02c0,1.38,0.42,2.311,1.62,2.311c0.885,0,1.5-0.615,1.74-1.2
		c0.075-0.195,0.12-0.435,0.12-0.675v-4.455h1.32V76.188z"/>
	<path fill="#FFFFFF" d="M174.501,73.172c0-0.854-0.015-1.59-0.06-2.265h1.155l0.045,1.425h0.06c0.33-0.975,1.125-1.59,2.01-1.59
		c0.15,0,0.255,0.015,0.375,0.045v1.245c-0.135-0.03-0.27-0.045-0.45-0.045c-0.93,0-1.59,0.705-1.77,1.695
		c-0.03,0.18-0.06,0.39-0.06,0.614v3.87h-1.305V73.172z"/>
	<path fill="#FFFFFF" d="M184.431,77.897c-0.345,0.18-1.11,0.42-2.084,0.42c-2.19,0-3.615-1.485-3.615-3.705
		c0-2.235,1.53-3.855,3.9-3.855c0.78,0,1.47,0.195,1.83,0.375l-0.3,1.021c-0.315-0.18-0.81-0.345-1.53-0.345
		c-1.665,0-2.565,1.229-2.565,2.744c0,1.681,1.08,2.715,2.52,2.715c0.75,0,1.245-0.194,1.62-0.359L184.431,77.897z"/>
	<path fill="#FFFFFF" d="M186.622,74.777c0.03,1.785,1.17,2.52,2.49,2.52c0.945,0,1.515-0.165,2.01-0.375l0.225,0.945
		c-0.465,0.21-1.26,0.45-2.415,0.45c-2.235,0-3.57-1.471-3.57-3.66c0-2.19,1.29-3.915,3.405-3.915c2.37,0,3,2.085,3,3.42
		c0,0.271-0.03,0.48-0.045,0.615H186.622z M190.491,73.832c0.015-0.84-0.345-2.145-1.83-2.145c-1.335,0-1.92,1.229-2.025,2.145
		H190.491z"/>
	<path fill="#FFFFFF" d="M203.15,74.478c0,2.685-1.86,3.854-3.615,3.854c-1.965,0-3.48-1.44-3.48-3.735c0-2.43,1.59-3.854,3.6-3.854
		C201.741,70.742,203.15,72.257,203.15,74.478z M197.391,74.552c0,1.59,0.915,2.79,2.205,2.79c1.26,0,2.205-1.185,2.205-2.819
		c0-1.23-0.615-2.79-2.175-2.79C198.066,71.732,197.391,73.172,197.391,74.552z"/>
	<path fill="#FFFFFF" d="M204.816,72.872c0-0.75-0.015-1.365-0.06-1.965h1.17l0.075,1.2h0.03c0.36-0.69,1.2-1.365,2.4-1.365
		c1.005,0,2.565,0.6,2.565,3.09v4.335h-1.32v-4.185c0-1.17-0.435-2.146-1.68-2.146c-0.87,0-1.545,0.615-1.77,1.351
		c-0.06,0.165-0.09,0.39-0.09,0.614v4.365h-1.32V72.872z"/>
	<path fill="#FFFFFF" d="M216.32,72.872c0-0.75-0.014-1.365-0.059-1.965h1.17l0.074,1.2h0.029c0.361-0.69,1.201-1.365,2.4-1.365
		c1.006,0,2.564,0.6,2.564,3.09v4.335h-1.318v-4.185c0-1.17-0.436-2.146-1.682-2.146c-0.869,0-1.545,0.615-1.77,1.351
		c-0.059,0.165-0.09,0.39-0.09,0.614v4.365h-1.32V72.872z"/>
	<path fill="#FFFFFF" d="M228.666,78.167l-0.105-0.915h-0.045c-0.406,0.57-1.186,1.08-2.221,1.08c-1.469,0-2.219-1.035-2.219-2.085
		c0-1.755,1.559-2.715,4.363-2.7v-0.149c0-0.601-0.164-1.681-1.648-1.681c-0.676,0-1.381,0.21-1.891,0.54l-0.301-0.869
		c0.602-0.391,1.471-0.646,2.385-0.646c2.221,0,2.76,1.515,2.76,2.97v2.715c0,0.63,0.031,1.245,0.121,1.74H228.666z M228.471,74.462
		c-1.441-0.029-3.076,0.226-3.076,1.635c0,0.855,0.57,1.261,1.246,1.261c0.945,0,1.545-0.601,1.754-1.216
		c0.045-0.135,0.076-0.284,0.076-0.42V74.462z"/>
	<path fill="#FFFFFF" d="M233.404,68.822v2.085h1.891v1.005h-1.891v3.915c0,0.9,0.256,1.41,0.99,1.41c0.346,0,0.6-0.045,0.766-0.09
		l0.061,0.989c-0.256,0.105-0.66,0.181-1.17,0.181c-0.615,0-1.111-0.195-1.426-0.556c-0.375-0.39-0.51-1.034-0.51-1.89v-3.96h-1.125
		v-1.005h1.125v-1.74L233.404,68.822z"/>
	<path fill="#FFFFFF" d="M242.855,76.188c0,0.75,0.014,1.409,0.059,1.979h-1.17l-0.074-1.185h-0.029
		c-0.346,0.585-1.111,1.35-2.4,1.35c-1.141,0-2.506-0.63-2.506-3.18v-4.245h1.32v4.02c0,1.38,0.42,2.311,1.621,2.311
		c0.885,0,1.5-0.615,1.738-1.2c0.076-0.195,0.121-0.435,0.121-0.675v-4.455h1.32V76.188z"/>
	<path fill="#FFFFFF" d="M245.045,73.172c0-0.854-0.014-1.59-0.059-2.265h1.154l0.045,1.425h0.061c0.33-0.975,1.125-1.59,2.01-1.59
		c0.15,0,0.254,0.015,0.375,0.045v1.245c-0.135-0.03-0.27-0.045-0.451-0.045c-0.93,0-1.59,0.705-1.77,1.695
		c-0.029,0.18-0.059,0.39-0.059,0.614v3.87h-1.307V73.172z"/>
	<path fill="#FFFFFF" d="M253.896,78.167l-0.105-0.915h-0.045c-0.406,0.57-1.186,1.08-2.221,1.08c-1.469,0-2.219-1.035-2.219-2.085
		c0-1.755,1.559-2.715,4.363-2.7v-0.149c0-0.601-0.164-1.681-1.648-1.681c-0.676,0-1.381,0.21-1.891,0.54l-0.301-0.869
		c0.602-0.391,1.471-0.646,2.385-0.646c2.221,0,2.76,1.515,2.76,2.97v2.715c0,0.63,0.031,1.245,0.121,1.74H253.896z M253.701,74.462
		c-1.441-0.029-3.076,0.226-3.076,1.635c0,0.855,0.57,1.261,1.246,1.261c0.945,0,1.545-0.601,1.754-1.216
		c0.045-0.135,0.076-0.284,0.076-0.42V74.462z"/>
	<path fill="#FFFFFF" d="M257.105,67.518h1.32v10.649h-1.32V67.518z"/>
	<path fill="#FFFFFF" d="M263.824,67.518h1.32v4.529h0.031c0.209-0.375,0.539-0.705,0.943-0.93c0.391-0.225,0.855-0.375,1.352-0.375
		c0.975,0,2.533,0.6,2.533,3.104v4.32h-1.318v-4.17c0-1.17-0.436-2.16-1.682-2.16c-0.854,0-1.529,0.601-1.77,1.32
		c-0.074,0.18-0.09,0.375-0.09,0.63v4.38h-1.32V67.518z"/>
	<path fill="#FFFFFF" d="M272.885,74.777c0.031,1.785,1.17,2.52,2.49,2.52c0.945,0,1.516-0.165,2.01-0.375l0.225,0.945
		c-0.465,0.21-1.26,0.45-2.414,0.45c-2.234,0-3.57-1.471-3.57-3.66c0-2.19,1.291-3.915,3.404-3.915c2.371,0,3,2.085,3,3.42
		c0,0.271-0.029,0.48-0.045,0.615H272.885z M276.756,73.832c0.014-0.84-0.346-2.145-1.83-2.145c-1.336,0-1.92,1.229-2.025,2.145
		H276.756z"/>
	<path fill="#FFFFFF" d="M283.686,78.167l-0.105-0.915h-0.045c-0.406,0.57-1.186,1.08-2.221,1.08c-1.469,0-2.219-1.035-2.219-2.085
		c0-1.755,1.559-2.715,4.363-2.7v-0.149c0-0.601-0.164-1.681-1.648-1.681c-0.676,0-1.381,0.21-1.891,0.54l-0.301-0.869
		c0.602-0.391,1.471-0.646,2.385-0.646c2.221,0,2.76,1.515,2.76,2.97v2.715c0,0.63,0.031,1.245,0.121,1.74H283.686z M283.49,74.462
		c-1.441-0.029-3.076,0.226-3.076,1.635c0,0.855,0.57,1.261,1.246,1.261c0.945,0,1.545-0.601,1.754-1.216
		c0.045-0.135,0.076-0.284,0.076-0.42V74.462z"/>
	<path fill="#FFFFFF" d="M286.895,67.518h1.32v10.649h-1.32V67.518z"/>
	<path fill="#FFFFFF" d="M292.023,68.822v2.085h1.891v1.005h-1.891v3.915c0,0.9,0.256,1.41,0.99,1.41c0.346,0,0.6-0.045,0.766-0.09
		l0.061,0.989c-0.256,0.105-0.66,0.181-1.17,0.181c-0.615,0-1.111-0.195-1.426-0.556c-0.375-0.39-0.51-1.034-0.51-1.89v-3.96h-1.125
		v-1.005h1.125v-1.74L292.023,68.822z"/>
	<path fill="#FFFFFF" d="M295.398,67.518h1.32v4.529h0.031c0.209-0.375,0.539-0.705,0.943-0.93c0.391-0.225,0.855-0.375,1.352-0.375
		c0.975,0,2.533,0.6,2.533,3.104v4.32h-1.318v-4.17c0-1.17-0.436-2.16-1.682-2.16c-0.854,0-1.529,0.601-1.77,1.32
		c-0.074,0.18-0.09,0.375-0.09,0.63v4.38h-1.32V67.518z"/>
</g>
</svg>
